<svg id="Layer_1" data-name="Layer 1" xmlns="http://www.w3.org/2000/svg" viewBox="0 0 956 598"><defs><style>.cls-1{fill:#fff;}</style></defs><title>logo</title><path class="cls-1" d="M475.09,173.47H427.25a5.43,5.43,0,1,1,0-10.86h47.84c22.49,0,42.54-9,50.71-13.25a132.89,132.89,0,0,1-7.9-45.19,134.69,134.69,0,0,1,1.82-21.92A5.42,5.42,0,0,1,526.83,78a134,134,0,0,1,53.88,34.78c1-8.14,4.38-24.52,14.62-30.37,9.54-5.45,31.1-25.15,47.1-41.14C655.64,28,661,19.11,661,19a5.38,5.38,0,0,1,5.51-2.61A5.44,5.44,0,0,1,671,20.56c.34,1.5,8.09,37.08-15,66.78-10.31,13.25-14.15,20.78-15.57,24.69h12.84a5.43,5.43,0,1,1,0,10.86H634.59a5.44,5.44,0,0,1-4.12-1.9c-5-5.84.7-19.41,17-40.32,11.86-15.25,14.24-32.62,14.2-44.29-3,3.56-6.78,7.8-11.53,12.55C637.38,61.66,612.67,85,600.71,91.84c-6.27,3.58-9.18,19.1-9.61,26.06a5.44,5.44,0,0,1-4.68,5.05c-2.33.32-4.46.68-6.31,1.12a5.45,5.45,0,0,1-5.28-1.65,123.59,123.59,0,0,0-45.31-31.84,122.07,122.07,0,0,0,8.07,59.22,5.43,5.43,0,0,1-2.19,6.64C534.27,157.14,507.38,173.47,475.09,173.47Z"/><path class="cls-1" d="M481.55,518.59a5.43,5.43,0,0,1-5.43-5.43c0-27.35,18.74-86.31,58.94-126,24.41-24.09,51.81-36.3,81.43-36.3a12.31,12.31,0,0,1,2.5.13l1.71.37a5.16,5.16,0,0,1,1.21.41,80.87,80.87,0,0,0,35.16,8,81.9,81.9,0,0,0,39.65-10.26,5.61,5.61,0,0,1,.7-.33c20.51-7.81,42.57-8.33,45.73-8.37,23.14-2.86,33.93-1.1,48.81,1.34l.64.1a5.78,5.78,0,0,1,.89.23,28.43,28.43,0,0,0,26.19-49.75,5.06,5.06,0,0,1-.69-.61c-5.78-6.07-14.43-13.78-22.79-21.24l-6.41-5.73c-5.24-4.71-9.59-8.52-13.28-11.75-19.74-17.27-21.55-19.28-34.83-48.88-10.73-31.38-31.88-56.28-59.75-70.58a5.43,5.43,0,0,1-3-4.83c0-16.84,7-32.45,20.33-45.11,9-8.56,15-23.06,18.37-34.84-14.93,15.73-37.43,38.63-45,42.14a5.43,5.43,0,0,1-4.55-9.86c6.3-2.91,35.54-32.87,54.3-53.21a5.43,5.43,0,0,1,9.42,3.68c0,10.28-7.44,43.2-25,60-10.39,9.89-16,21.33-16.86,34,28.88,15.81,50.76,42.19,61.83,74.65,12.44,27.66,13.16,28.3,31.88,44.68,3.72,3.26,8.11,7.09,13.39,11.85l6.37,5.7c8.38,7.47,17,15.19,23.11,21.52a39,39,0,0,1,15.56,31.27,39.26,39.26,0,0,1-51.68,37.32l-.2,0c-14.58-2.4-24.2-4-46-1.24a5.58,5.58,0,0,1-.67,0c-.22,0-22.2.13-41.87,7.53a92.77,92.77,0,0,1-44.57,11.44,91.67,91.67,0,0,1-39.26-8.74l-.56-.12h-.75c-26.68,0-51.51,11.15-73.82,33.17C506.34,430.78,487,486.63,487,513.16A5.43,5.43,0,0,1,481.55,518.59Z"/><g id="_Group_" data-name="&lt;Group&gt;"><path class="cls-1" d="M419,328.31a5.43,5.43,0,0,1-4.35-2.18c-3.32-4.45-7.08-9-11.2-13.49a5.43,5.43,0,0,1,1.1-8.25,85.63,85.63,0,0,0,38.27-89.86,5.43,5.43,0,0,1,10.64-2.19A96.47,96.47,0,0,1,415.62,310c2.33,2.71,4.53,5.42,6.58,8.11A5.33,5.33,0,0,1,424,325l-.08.15a5.43,5.43,0,0,1-4.94,3.18Z"/><path class="cls-1" d="M448.14,213.43l3,13.34a105.27,105.27,0,0,1,41.91-8.89,103.71,103.71,0,0,0-49.19-23.46l3.12,14Z"/><path class="cls-1" d="M451.17,232.2a5.43,5.43,0,0,1-5.3-4.23l-3-13.34h0l-4.26-19a5.42,5.42,0,0,1,6.27-6.52,109.43,109.43,0,0,1,51.77,24.68,5.43,5.43,0,0,1-3.51,9.54,99.45,99.45,0,0,0-39.76,8.44A5.41,5.41,0,0,1,451.17,232.2Zm2.27-20,1.61,7.11a109.12,109.12,0,0,1,23.07-5.82A98.68,98.68,0,0,0,451,201.6Z"/></g><circle class="cls-1" cx="388.45" cy="216" r="11.91"/><circle class="cls-1" cx="679.7" cy="216" r="11.91"/><path class="cls-1" d="M291.47,581a5.43,5.43,0,1,1,0-10.86c84.44,0,153.13-68.65,153.13-153a152.19,152.19,0,0,0-30-91,5.43,5.43,0,1,1,8.74-6.45,163,163,0,0,1,32.09,97.45C455.46,507.48,381.89,581,291.47,581Z"/><path class="cls-1" d="M136.14,454.23a5.35,5.35,0,0,1-1.12-.12c-36.13-7.62-75.12-52-75.12-110.29V299c0-88.61,70.63-136.43,137.08-136.43h94.15A96.74,96.74,0,0,1,452.25,207a5.43,5.43,0,1,1-10.5,2.77,85.94,85.94,0,1,0-164.88,48.32,5.43,5.43,0,0,1-4.5,7.05C196,274.69,138.44,340,138.44,417.11a153.53,153.53,0,0,0,3,30.6,5.42,5.42,0,0,1-5.32,6.52ZM197,173.47c-61.19,0-126.22,44-126.22,125.57v44.79c0,48.52,29,86.21,58.54,97.32a167.68,167.68,0,0,1-1.71-24c0-80.45,58.54-148.92,137.19-161.81a96.9,96.9,0,0,1,16.77-81.83Z"/></svg>